<svg width="185" height="185" viewBox="0 0 185 185" fill="none" xmlns="http://www.w3.org/2000/svg">
<g clip-path="url(#clip0_3262_2493)">
<path d="M183.5 92.4093C180.289 118.66 168.916 134.511 151.774 146.327C136.56 156.814 116.84 164.109 94.0483 172.541C90.9472 173.688 87.7892 174.856 84.578 176.056L49.8423 183.5C23.1292 183.415 1.5 161.733 1.5 135V92.5C1.5 42.2424 42.2424 1.5 92.5 1.5C142.728 1.5 183.451 42.1934 183.5 92.4093Z" fill="url(#paint0_linear_3262_2493)" stroke="url(#paint1_linear_3262_2493)" stroke-width="3"/>
<path d="M97.5495 56.5233C97.8345 58.1231 97.5679 59.7154 96.7498 61.3001C95.9728 62.8775 94.9013 64.465 93.5353 66.0627C92.2104 67.653 90.7345 69.2279 89.1078 70.7874C87.4811 72.3469 85.9811 73.9049 84.6079 75.4616C83.2756 77.0109 82.1931 78.5369 81.3605 80.0396C80.5688 81.535 80.3045 83.021 80.5676 84.4978C80.7868 85.7284 81.8602 86.7645 83.7876 87.6062C85.7151 88.4479 88.4015 89.1543 91.8468 89.7256C95.292 90.2969 99.4214 90.7886 104.235 91.2007C109.041 91.5719 114.436 91.9227 120.421 92.2534C123.431 92.5212 125.126 93.7217 125.506 95.8548C125.652 96.6752 125.59 97.5116 125.318 98.3641C125.088 99.2093 124.699 99.998 124.153 100.73C123.599 101.421 122.924 102.028 122.128 102.551C121.373 103.066 120.565 103.401 119.704 103.554C117.653 103.92 115.26 104.028 112.525 103.881C109.831 103.726 107.009 103.446 104.059 103.04C101.109 102.635 98.1438 102.147 95.1643 101.577C92.1776 100.967 89.3732 100.429 86.7512 99.9655C84.1702 99.4942 81.8814 99.119 79.8849 98.8398C77.9293 98.5533 76.4798 98.4941 75.5363 98.6622C74.7979 98.7938 74.1422 99.2703 73.5691 100.092C73.0297 100.865 72.5788 101.898 72.2164 103.19C71.8951 104.474 71.6959 105.97 71.6191 107.676C71.5349 109.342 71.5825 111.153 71.7619 113.111C71.9441 115.321 71.4533 117.08 70.2896 118.388C69.1597 119.648 67.4256 120.485 65.0874 120.902C62.6672 121.333 61.0715 120.454 60.3004 118.263C59.0712 114.927 57.6875 111.555 56.1493 108.147C54.6521 104.732 53.0523 101.335 51.35 97.9557C49.6887 94.5696 47.9322 91.2428 46.0804 87.9752C44.2696 84.7004 42.4229 81.5801 40.5403 78.6143C40.0879 77.9754 39.7285 77.3834 39.4621 76.8384C39.2294 76.245 39.0582 75.6406 38.9486 75.0253C38.8536 74.492 38.93 73.9705 39.1778 73.4609C39.4183 72.9101 39.7928 72.399 40.3013 71.9275C40.8098 71.4561 41.415 71.052 42.1168 70.7153C42.8597 70.3714 43.6413 70.1263 44.4617 69.9802C46.1436 69.6806 47.5389 69.7917 48.6476 70.3137C49.7564 70.8357 50.9477 71.7027 52.2217 72.9147C52.8309 73.4833 53.4597 74.2812 54.1083 75.3084C54.7495 76.2946 55.3848 77.3664 56.0143 78.524C56.6437 79.6815 57.2768 80.8596 57.9135 82.0581C58.543 83.2157 59.1336 84.2743 59.6855 85.2341C60.2711 86.1455 60.807 86.8965 61.2931 87.4871C61.8129 88.0293 62.2574 88.2675 62.6266 88.2018C62.9548 88.1433 63.1958 87.9522 63.3498 87.6285C63.5447 87.2976 63.7552 86.8157 63.981 86.1829C65.3249 81.3727 66.9432 76.9156 68.8361 72.8117C70.7217 68.6667 72.7675 65.0646 74.9735 62.0052C77.1721 58.9049 79.4768 56.3994 81.8874 54.4886C84.339 52.5706 86.7954 51.3924 89.2566 50.9539C90.2411 50.7785 91.197 50.7987 92.1242 51.0144C93.0441 51.1891 93.8665 51.5293 94.5914 52.035C95.3574 52.5334 96.0017 53.1804 96.5243 53.9761C97.0397 54.7307 97.3814 55.5798 97.5495 56.5233ZM137.318 108.352C136.129 108.564 134.968 108.58 133.835 108.401C132.744 108.214 131.754 107.883 130.865 107.406C129.969 106.889 129.218 106.24 128.614 105.459C128.05 104.67 127.68 103.784 127.505 102.799C127.198 101.076 127.626 99.5612 128.79 98.2535C129.995 96.9384 131.725 96.08 133.981 95.6781C135.048 95.4881 136.11 95.5105 137.168 95.7453C138.259 95.9318 139.232 96.2874 140.087 96.8122C140.984 97.3297 141.734 97.979 142.339 98.76C142.944 99.5411 143.33 100.403 143.498 101.347C143.82 103.152 143.415 104.684 142.285 105.943C141.189 107.154 139.533 107.957 137.318 108.352Z" fill="white"/>
</g>
<defs>
<linearGradient id="paint0_linear_3262_2493" x1="0" y1="92" x2="185" y2="92" gradientUnits="userSpaceOnUse">
<stop stop-color="#000080"/>
<stop offset="1" stop-color="#000059"/>
</linearGradient>
<linearGradient id="paint1_linear_3262_2493" x1="92.5" y1="0" x2="92.5" y2="185" gradientUnits="userSpaceOnUse">
<stop stop-color="white"/>
<stop offset="1" stop-color="#C7C0C0"/>
</linearGradient>
<clipPath id="clip0_3262_2493">
<rect width="185" height="185" fill="white"/>
</clipPath>
</defs>
</svg>
