<svg width="69" height="86" viewBox="0 0 69 86" fill="none" xmlns="http://www.w3.org/2000/svg">
<g clip-path="url(#clip0_3286_1559)">
<path d="M22.0576 85.757C16.6069 83.3253 12.9032 78.0869 12.4173 72.0873C12.5748 69.0462 13.4428 66.0858 14.9503 63.4482C16.4578 60.8106 18.5621 58.5706 21.091 56.9113C20.2496 58.9835 20.4539 61.3425 21.622 63.238C22.2713 64.1556 23.1712 64.8625 24.2117 65.2723C25.2523 65.6821 26.3885 65.7772 27.4816 65.5459C30.6729 64.6399 32.5421 61.2943 31.6448 58.0693C31.3255 56.9381 30.6915 55.923 29.8182 55.1445C28.0425 53.6856 26.6697 51.7888 25.8325 49.6375C24.9953 47.4862 24.7221 45.1531 25.0391 42.8639C25.6605 40.3888 27.0136 38.1633 28.9182 36.4836C27.4843 40.3441 31.5281 44.1534 34.2415 46.0274C39.057 48.9451 43.6955 52.1508 48.1323 55.6273C52.9831 59.4878 55.6274 65.5304 55.2134 71.7123C54.1221 78.291 49.5128 83.7224 43.2312 85.7597C55.7975 82.9369 68.7539 72.857 69.0008 58.5603C68.7539 47.1212 61.9916 36.8562 51.6556 32.1809H51.1963C51.426 32.742 51.5346 33.3461 51.5149 33.9529C51.5494 33.5605 51.5494 33.1657 51.5149 32.7733C51.5707 33.2363 51.5707 33.7044 51.5149 34.1673C50.729 37.4193 47.4792 39.4218 44.2508 38.6282C42.9605 38.3065 41.8083 37.5749 40.9798 36.5184C36.8379 31.157 40.9798 25.0554 41.6727 19.1573C41.8829 15.4542 41.1647 11.7573 39.5846 8.40873C38.0045 5.06016 35.6136 2.16806 32.6329 0C35.6622 5.09904 31.6265 11.7956 28.6926 15.6052C25.7537 19.4145 21.5056 22.2536 18.0435 25.5777C14.3131 29.0816 10.8936 32.9339 7.82445 37.0516C1.1894 45.2363 -1.41508 56.032 0.743323 66.3798C3.70385 76.3525 11.913 83.8454 22.0366 85.7891H22.0924L22.0576 85.757Z" fill="#DD4814"/>
</g>
<defs>
<clipPath id="clip0_3286_1559">
<rect width="69" height="86" fill="white"/>
</clipPath>
</defs>
</svg>
