<svg width="95" height="95" viewBox="0 0 95 95" fill="none" xmlns="http://www.w3.org/2000/svg">
<path d="M17.5213 80.753L10.8535 5.9375H84.146L77.4693 80.7411L47.4552 89.0625L17.5213 80.753Z" fill="#1572B6"/>
<path d="M47.5 82.7035L71.7547 75.9793L77.4606 12.0562H47.5V82.7035Z" fill="#33A9DC"/>
<path d="M47.5 39.1609H59.6422L60.4794 29.7648H47.5V20.5884H70.5078L70.2881 23.0495L68.0348 48.3373H47.5V39.1609Z" fill="white"/>
<path d="M47.5568 62.9909L47.5152 63.0027L37.2968 60.2418L36.6437 52.9238H27.4316L28.7171 67.3312L47.5123 72.5502L47.5568 72.5384V62.9909Z" fill="#EBEBEB"/>
<path d="M58.8611 47.9482L57.7567 60.2359L47.5234 62.9968V72.5443L66.3334 67.3312L66.473 65.7815L68.0672 47.9482H58.8611Z" fill="white"/>
<path d="M47.5329 20.5884V29.7648H25.3682L25.1842 27.7015L24.7656 23.0495L24.5459 20.5884H47.5329ZM47.5003 39.1609V48.3373H37.4095L37.2254 46.274L36.8098 41.622L36.5901 39.1609H47.5003Z" fill="#EBEBEB"/>
</svg>
