<svg width="95" height="95" viewBox="0 0 95 95" fill="none" xmlns="http://www.w3.org/2000/svg">
<path d="M17.5214 80.753L10.8506 5.9375H84.149L77.4693 80.7411L47.4553 89.0625L17.5214 80.753Z" fill="#E44F26"/>
<path d="M47.5 82.7035L71.7547 75.9793L77.4606 12.0562H47.5V82.7035Z" fill="#F1662A"/>
<path d="M47.5 39.802H35.3578L34.5206 30.4059H47.5V21.2295H24.4922L24.7119 23.6936L26.9652 48.9784H47.5V39.802ZM47.5 63.6321L47.4584 63.644L37.24 60.8861L36.5869 53.5681H27.3748L28.6603 67.9725L47.4584 73.1915L47.5 73.1797V63.6321Z" fill="#EBEBEB"/>
<path d="M47.4678 39.802V48.9784H58.7668L57.704 60.8801L47.4678 63.6411V73.1886L66.2807 67.9725L66.4173 66.4228L68.5726 42.2661L68.7982 39.802H47.4678ZM47.4678 21.2295V30.4059H69.6325L69.8165 28.3456L70.2351 23.6936L70.4548 21.2295H47.4678Z" fill="white"/>
</svg>
