<svg width="95" height="95" viewBox="0 0 95 95" fill="none" xmlns="http://www.w3.org/2000/svg">
<path d="M83.5205 43.7397L51.2601 11.4793C50.2705 10.4897 48.8851 9.896 47.4997 9.896C46.1143 9.896 44.7288 10.4897 43.7393 11.4793L36.8122 18.4064L44.9268 26.521C45.7184 26.1252 46.5101 25.9272 47.4997 25.9272C50.8643 25.9272 53.4372 28.5002 53.4372 31.8647C53.4372 32.8543 53.2393 33.646 52.8434 34.4377L60.7601 42.3543C61.5518 41.9585 62.3434 41.7606 63.333 41.7606C66.6976 41.7606 69.2705 44.3335 69.2705 47.6981C69.2705 51.0627 66.6976 53.6356 63.333 53.6356C59.9684 53.6356 57.3955 51.0627 57.3955 47.6981C57.3955 46.7085 57.5934 45.9168 57.9893 45.1252L50.0726 37.2085C49.8747 37.2085 49.6768 37.4064 49.4788 37.4064V57.9897C51.8538 58.7814 53.4372 60.9585 53.4372 63.5314C53.4372 66.896 50.8643 69.4689 47.4997 69.4689C44.1351 69.4689 41.5622 66.896 41.5622 63.5314C41.5622 60.9585 43.1455 58.7814 45.5205 57.9897V37.2085C43.1455 36.4168 41.5622 34.2397 41.5622 31.6668C41.5622 30.6772 41.7601 29.8856 42.1559 29.0939L34.0413 20.9793L11.4788 43.7397C10.4893 44.7293 9.89551 46.1147 9.89551 47.5002C9.89551 48.8856 10.4893 50.271 11.4788 51.2606L43.7393 83.521C44.7288 84.5106 46.1143 85.1043 47.4997 85.1043C48.8851 85.1043 50.2705 84.5106 51.2601 83.521L83.5205 51.2606C84.5101 50.271 85.1038 48.8856 85.1038 47.5002C85.1038 46.1147 84.5101 44.7293 83.5205 43.7397Z" fill="#F4511E"/>
</svg>
