<svg width="100" height="92" viewBox="0 0 100 92" fill="none" xmlns="http://www.w3.org/2000/svg">
<g clip-path="url(#clip0_3286_1586)">
<path d="M50.0004 55.7355C55.2602 55.7355 59.5242 51.3768 59.5242 46.0001C59.5242 40.6234 55.2602 36.2646 50.0004 36.2646C44.7405 36.2646 40.4766 40.6234 40.4766 46.0001C40.4766 51.3768 44.7405 55.7355 50.0004 55.7355Z" fill="#087EA4"/>
<path d="M49.9999 67.9047C76.2992 67.9047 97.619 58.0976 97.619 46C97.619 33.9023 76.2992 24.0952 49.9999 24.0952C23.7006 24.0952 2.38086 33.9023 2.38086 46C2.38086 58.0976 23.7006 67.9047 49.9999 67.9047Z" stroke="#087EA4" stroke-width="3"/>
<path d="M31.4422 56.9526C44.5918 80.2346 63.5603 94.2048 73.8094 88.1559C84.0585 82.1071 81.7072 58.3298 68.5576 35.0478C55.4079 11.7659 36.4395 -2.20436 26.1904 3.84447C15.9412 9.89331 18.2926 33.6706 31.4422 56.9526Z" stroke="#087EA4" stroke-width="3"/>
<path d="M31.4423 35.0478C18.2927 58.3298 15.9413 82.1071 26.1904 88.156C36.4396 94.2048 55.408 80.2346 68.5577 56.9526C81.7073 33.6706 84.0586 9.89333 73.8095 3.84449C63.5604 -2.20434 44.5919 11.7659 31.4423 35.0478Z" stroke="#087EA4" stroke-width="3"/>
</g>
<defs>
<clipPath id="clip0_3286_1586">
<rect width="100" height="92" fill="white"/>
</clipPath>
</defs>
</svg>
