<svg width="84" height="84" viewBox="0 0 84 84" fill="none" xmlns="http://www.w3.org/2000/svg">
<path d="M0 84V0H84V84H0Z" fill="#FFD600"/>
<path d="M54.9223 62.8765C56.537 65.4992 58.2917 68.0122 62.0087 68.0122C65.1307 68.0122 66.7687 66.4605 66.7687 64.3138C66.7687 61.7448 65.0747 60.8325 61.64 59.3368L59.757 58.5342C54.3227 56.2288 50.7083 53.3402 50.7083 47.2385C50.7083 41.6152 55.0133 37.3358 61.7403 37.3358C66.5307 37.3358 69.9723 38.9948 72.455 43.3395L66.589 47.0892C65.2987 44.7838 63.9033 43.8762 61.7403 43.8762C59.533 43.8762 58.1353 45.2692 58.1353 47.0892C58.1353 49.3385 59.5353 50.2485 62.767 51.6415L64.65 52.4442C71.055 55.1718 74.667 57.9578 74.667 64.2205C74.667 70.9685 69.3377 74.6668 62.1837 74.6668C55.186 74.6668 51.2123 71.1552 49.0003 66.8082L54.9223 62.8765ZM27.8883 63.0678C29.069 65.1818 30.8633 66.8082 33.444 66.8082C35.9127 66.8082 37.3337 65.8328 37.3337 62.0412V37.3335H45.1107V63.2358C45.1107 71.0922 40.5537 74.6668 33.899 74.6668C27.886 74.6668 23.546 70.5928 21.7773 66.8082L27.8883 63.0678Z" fill="#000001"/>
</svg>
