<svg width="83" height="86" viewBox="0 0 83 86" fill="none" xmlns="http://www.w3.org/2000/svg">
<g clip-path="url(#clip0_3286_1557)">
<path d="M82.9533 19.4219C82.9841 19.5363 83 19.6542 83 19.7728V38.2002C83 38.6817 82.7439 39.1264 82.3279 39.3658L66.935 48.271V65.9206C66.9349 66.1567 66.8731 66.3887 66.7557 66.5933C66.6384 66.7979 66.4697 66.9679 66.2664 67.0865L34.1337 85.6719C34.0602 85.7136 33.9801 85.7403 33.8997 85.7693C33.8695 85.7791 33.8413 85.7977 33.8095 85.8061C33.5849 85.8656 33.3488 85.8656 33.1241 85.8061C33.0872 85.7963 33.0538 85.7758 33.0188 85.7625C32.9452 85.7354 32.8683 85.712 32.7983 85.6719L0.672105 67.0861C0.468003 66.9684 0.298407 66.7986 0.180411 66.594C0.0624152 66.3893 0.000187647 66.1571 0 65.9206L0 10.6382C0 10.517 0.0168594 10.3994 0.0466875 10.2854C0.0567383 10.2467 0.080082 10.2115 0.0936992 10.1727C0.118664 10.1023 0.142332 10.03 0.178969 9.96454C0.203934 9.92089 0.24057 9.88571 0.270723 9.84532C0.309305 9.79157 0.34432 9.73619 0.389387 9.68895C0.427969 9.65051 0.478223 9.62185 0.521668 9.58829C0.570301 9.5479 0.613422 9.50425 0.668539 9.47232H0.67016L16.7339 0.179764C16.9374 0.0623017 17.1679 0.000488281 17.4026 0.000488281C17.6373 0.000488281 17.8678 0.0623017 18.0713 0.179764L34.135 9.47232H34.1383C34.1918 9.5062 34.2372 9.5479 34.2855 9.58667C34.3289 9.62022 34.3776 9.65051 34.4158 9.68765C34.4628 9.73619 34.4962 9.79189 34.5361 9.84532C34.5646 9.88571 34.6032 9.92089 34.6266 9.96454C34.6648 10.0317 34.6865 10.1023 34.7135 10.173C34.7267 10.2115 34.7501 10.2467 34.7601 10.287C34.7909 10.4014 34.8068 10.5196 34.8072 10.6382V45.1666L48.1928 37.4223V19.7712C48.1928 19.6539 48.2097 19.5343 48.2399 19.4219C48.2515 19.3815 48.2733 19.3464 48.2865 19.3079C48.3135 19.2372 48.3368 19.1646 48.3734 19.0994C48.3984 19.0558 48.435 19.0206 48.4639 18.9802C48.5038 18.9265 48.5372 18.8711 48.5839 18.8238C48.6228 18.7854 48.6711 18.7567 48.7145 18.7232C48.7648 18.6828 48.8082 18.6391 48.8617 18.6072H48.8633L64.9287 9.31466C65.1321 9.19688 65.3627 9.13488 65.5974 9.13488C65.8321 9.13488 66.0627 9.19688 66.2661 9.31466L82.3298 18.6072C82.3866 18.6408 82.43 18.6828 82.4803 18.7212C82.5218 18.7551 82.5704 18.7854 82.609 18.8222C82.6557 18.8711 82.6891 18.9265 82.729 18.9802C82.7594 19.0206 82.7961 19.0558 82.8197 19.0994C82.858 19.1646 82.8797 19.2372 82.9063 19.3079C82.9215 19.3464 82.9433 19.3815 82.9533 19.4219ZM80.3223 37.4227V22.099L74.7006 25.3504L66.9346 29.8433V45.1669L80.3239 37.4227H80.3223ZM64.2585 65.143V49.8086L56.6193 54.1923L34.8055 66.7014V82.1795L64.2585 65.143ZM2.67772 12.9641V65.143L32.1275 82.1782V66.703L16.7427 57.9545L16.7378 57.9512L16.7313 57.948C16.6794 57.9177 16.6357 57.874 16.5874 57.8372C16.5452 57.8034 16.4969 57.7766 16.4603 57.7395L16.457 57.7346C16.4136 57.6926 16.3834 57.6405 16.3468 57.5936C16.3131 57.548 16.2732 57.5095 16.2463 57.4626L16.2447 57.4574C16.2145 57.4072 16.196 57.3466 16.1743 57.2896C16.1526 57.2391 16.1244 57.1919 16.1108 57.1385V57.1368C16.0942 57.073 16.091 57.0056 16.0842 56.9401C16.0777 56.8899 16.0641 56.8394 16.0641 56.7889V20.7087L8.29935 16.2139L2.67772 12.9661V12.9641ZM17.4044 2.89723L4.01999 10.6382L17.4011 18.3789L30.7836 10.6363L17.4011 2.89723H17.4044ZM24.3647 51.2064L32.1291 46.7155V12.9641L26.5081 16.2158L18.7415 20.7084V54.4594L24.3647 51.2064ZM65.5972 12.0321L52.2148 19.7728L65.5972 27.5138L78.9781 19.7712L65.5972 12.0321ZM64.2582 29.8433L56.4922 25.3504L50.8709 22.099V37.4227L58.6353 41.9139L64.2585 45.1669L64.2582 29.8433ZM33.4649 64.3755L53.0941 53.116L62.9062 47.4895L49.5335 39.7538L34.1367 48.66L20.1038 56.7772L33.4649 64.3755Z" fill="#FF2D20"/>
</g>
<defs>
<clipPath id="clip0_3286_1557">
<rect width="83" height="86" fill="white"/>
</clipPath>
</defs>
</svg>
