<svg width="113" height="76" viewBox="0 0 113 76" fill="none" xmlns="http://www.w3.org/2000/svg">
<g clip-path="url(#clip0_3286_1594)">
<path d="M33.6153 50.1505L37.0494 61.1448C37.821 63.6411 38.1428 65.3836 38.0139 66.3769C39.8921 61.4136 41.2045 56.0048 41.951 50.1505H46.0804C44.3046 59.6814 41.9632 66.607 39.0561 70.9275C36.7912 74.2569 34.3101 75.9215 31.6082 75.9215C30.8878 75.9215 29.9997 75.7068 28.9459 75.2804V72.983C29.4608 73.0574 30.0648 73.0973 30.7596 73.0973C32.0198 73.097 33.0362 72.7528 33.8088 72.0647C34.7343 71.2265 35.1975 70.2844 35.1975 69.2402C35.1975 68.5273 34.8362 67.0641 34.1169 64.8508L29.3321 50.1505H33.6153ZM7.33242 43.3931L13.6225 62.329H13.6613L19.99 43.3931H25.1606C26.2928 52.784 26.9615 61.3763 27.1668 69.1647H22.8075C22.6538 61.8844 22.2295 55.0378 21.5344 48.6251H21.4965L14.8582 69.1647H11.5384L4.94022 48.6251H4.90137C4.41215 54.7838 4.10346 61.6303 3.9753 69.1647H0C0.256898 60.0011 0.899807 51.4114 1.92872 43.3931H7.33242Z" fill="#00758F"/>
<path d="M77.7978 43.011C84.5639 43.011 87.9471 47.2761 87.9471 55.8023C87.9471 60.4354 86.9297 63.9351 84.8968 66.2994C84.5304 66.7315 84.1254 67.1047 83.699 67.4505L88.4872 69.7865L88.4825 69.7863L86.7824 72.683L80.5469 69.0931C79.5132 69.3951 78.3765 69.5461 77.1368 69.5461C73.8146 69.5461 71.333 68.5907 69.6923 66.6825C67.8914 64.5714 66.9913 61.2481 66.9913 56.7182C66.9913 52.1111 68.007 48.6247 70.0406 46.2574C71.8927 44.0919 74.4789 43.011 77.7978 43.011ZM57.0782 43.0482C59.4965 43.0482 61.6953 43.6867 63.6759 44.9591L62.67 47.1709C60.9752 46.4601 59.3042 46.1032 57.6565 46.1032C56.3195 46.1032 55.2892 46.4207 54.571 47.0596C53.8489 47.6929 53.4022 48.5078 53.4022 49.5012C53.4022 51.0278 54.5044 52.3516 56.5395 53.47C57.2062 53.8296 57.8706 54.1933 58.5327 54.5612L58.6845 54.6455L58.7607 54.6877L58.9127 54.772L58.9886 54.8143L59.1405 54.8988C60.681 55.7557 62.1306 56.5736 62.1306 56.5736C64.1655 57.9989 65.1798 59.5184 65.1798 62.0212C65.1798 64.2069 64.3681 66.0011 62.7499 67.405C61.1306 68.8026 58.9551 69.5034 56.2307 69.5034C53.6827 69.5034 51.2133 68.6968 48.8213 67.0971L49.9403 64.8833C51.9988 65.9013 53.8615 66.4098 55.5342 66.4098C57.103 66.4098 58.3309 66.0642 59.2193 65.3817C60.1058 64.6943 60.6371 63.7354 60.6371 62.5197C60.6371 60.9894 59.5583 59.6813 57.5792 58.584C56.9598 58.2463 56.3422 57.9054 55.7264 57.5611L55.5748 57.4764C55.2963 57.3212 55.0158 57.1639 54.741 57.01L54.592 56.9264C53.2557 56.1764 52.1003 55.5211 52.1003 55.5211C50.1219 54.0932 49.1298 52.5613 49.1298 50.0369C49.1298 47.9492 49.8696 46.2618 51.347 44.978C52.8281 43.6915 54.7385 43.0482 57.0782 43.0482ZM95.8988 43.3931V65.9945H104.117V69.1648H91.7306V43.3934L95.8988 43.3931ZM108.684 66.0043V66.54H107.781V69.1619H107.09V66.54H106.151V66.0043H108.684ZM110.353 66.0043L111.22 68.1567L112.017 66.0043H112.996V69.1619H112.345V66.7589L111.438 69.1619H110.969L110.06 66.7589H110.025V69.1619H109.409V66.0043H110.353ZM77.3723 46.1803C73.3851 46.1803 71.3904 49.4272 71.3904 55.9166C71.3904 59.6338 71.919 62.3293 72.9742 64.0094C73.9514 65.5642 75.482 66.3401 77.5661 66.3401C81.5533 66.3401 83.5478 63.068 83.5478 56.5268C83.5478 52.8616 83.0192 50.1891 81.9654 48.5082C80.987 46.9569 79.4571 46.1803 77.3726 46.1803" fill="#F29111"/>
<path d="M66.9213 1.59689C68.244 -1.60992 72.8688 0.818594 74.6636 1.93878C75.1035 2.21904 75.608 2.81114 76.1123 3.03C76.8991 3.06048 77.6852 3.12124 78.4734 3.15369C79.9516 3.49645 81.3363 3.7765 82.5012 4.4311C87.9146 7.57671 91.4386 10.7822 94.6818 16.077C95.3748 17.1984 95.7211 18.412 96.2872 19.6257C97.0729 21.4346 97.9557 23.3335 98.8677 25.0441C99.276 25.855 99.5918 26.7568 100.159 27.4417C100.38 27.7548 101.009 27.8472 101.385 28.0342C102.424 28.5649 103.683 28.9678 104.66 29.5906C106.485 30.7134 108.25 32.0513 109.854 33.4211C110.451 33.9498 110.859 34.6983 111.429 35.2575V35.5397C110.923 35.6928 110.419 35.8496 109.915 35.9752C108.813 36.2544 107.837 36.1913 106.769 36.4707C106.108 36.6597 105.289 36.909 104.596 36.9724L104.66 37.036C105.067 38.1847 107.272 39.1189 108.28 39.8059C109.504 40.6779 110.639 41.7353 111.552 42.9498C111.868 43.2597 112.183 43.5417 112.497 43.8507C112.716 44.1639 112.778 44.5689 113 44.8481V44.9426C112.754 44.857 112.578 44.6937 112.41 44.5229L112.31 44.4199C112.21 44.3176 112.109 44.217 111.994 44.134C111.299 43.6658 110.61 43.1057 109.915 42.6704C108.72 41.9226 107.335 41.4886 106.108 40.738C105.415 40.3022 104.754 39.8059 104.093 39.3073C103.494 38.8702 102.834 38.0309 102.457 37.4081C102.236 37.0641 102.205 36.6597 101.952 36.4108C101.997 35.9951 102.383 35.8716 102.773 35.7701L102.862 35.7468C102.997 35.7124 103.128 35.678 103.243 35.6325C104.879 34.947 106.83 34.6983 109.349 34.7605C109.254 34.1364 107.68 33.3588 107.178 32.9851C106.169 32.2678 105.101 31.5193 104.031 30.8665C103.464 30.5246 102.487 30.275 101.859 29.9956C101.009 29.6529 99.1199 29.3103 98.6489 28.6575C97.8489 27.6283 97.2742 26.4008 96.7162 25.1608L96.5644 24.8224L96.4121 24.4842C95.7527 22.991 94.9334 21.4342 94.2724 19.9053C93.9268 19.1594 93.7681 18.5048 93.3896 17.7895C91.0927 13.3998 87.6932 9.72453 83.5716 7.13988C82.2172 6.29887 80.7069 5.52058 79.0397 4.99163C78.0949 4.71006 76.9609 4.86576 75.9543 4.64973H75.2917C74.7263 4.49251 74.2542 3.90106 73.813 3.58922C72.8386 2.93636 71.8626 2.498 70.6973 2.0322C70.289 1.84536 69.1231 1.41026 68.7161 1.75281C68.464 1.8153 68.3363 1.90916 68.2742 2.15872C68.0235 2.5311 68.244 3.09206 68.4 3.43548C68.8728 4.43066 69.5331 5.02211 70.1326 5.86312C70.6658 6.60897 71.3281 7.44997 71.7062 8.26093C72.5219 10.0041 72.9017 11.9355 73.6576 13.6785C73.9379 14.334 74.3813 15.0798 74.7894 15.671C75.1352 16.1403 75.764 16.4796 75.9543 17.0737C76.3334 17.6965 75.3866 19.7515 75.1675 20.4042C74.3475 22.9579 74.5065 26.5077 75.4506 28.7213L75.5009 28.838L75.5513 28.9562C75.896 29.767 76.265 30.64 77.1816 30.8667C77.2447 30.8048 77.1816 30.8373 77.3067 30.8048C77.5285 29.0915 77.591 27.4415 78.1895 26.1009C78.5354 25.2627 79.226 24.6702 79.6994 23.986C80.015 24.1724 80.015 24.7344 80.203 25.1064C80.6126 26.0711 81.0525 27.1287 81.5575 28.0963C82.5939 30.0888 83.7601 32.0206 85.0814 33.7636C85.524 34.3862 86.1519 35.0715 86.7182 35.6323C86.9704 35.8494 87.2529 35.9748 87.4425 36.2542H87.5043V36.3483C86.5602 36.0049 85.9616 35.041 85.2086 34.4783C83.7908 33.4206 82.0929 31.8323 81.1156 30.3081C80.7069 29.4331 80.265 28.5945 79.8245 27.7239V27.661C79.6363 27.9097 79.6994 28.1566 79.6051 28.5329C79.1964 30.0888 79.5111 31.8638 78.0949 32.4235C76.4895 33.079 75.2919 31.3658 74.7894 30.5873C73.1836 28.0033 72.7437 23.6441 73.8761 20.1252C74.1277 19.3463 74.1619 18.412 74.6011 17.7901C74.5062 17.2278 74.067 17.0741 73.813 16.7296C73.3725 16.1408 72.9953 15.4548 72.6503 14.8009C71.9878 13.5234 71.5164 11.9971 71.0134 10.6272C70.7922 10.0677 70.7289 9.50611 70.5084 8.97651C70.1323 8.16816 69.4391 7.35721 68.9043 6.64207C68.1802 5.61422 66.0712 3.6221 66.9213 1.59689ZM77.2441 7.69757C77.3281 7.78076 77.4297 7.85349 77.5347 7.92514L77.6614 8.01094C77.8302 8.12635 77.9938 8.24787 78.094 8.41337C78.2529 8.63244 78.2825 8.84868 78.4727 9.06819C78.4727 9.81664 78.2529 10.3142 77.8091 10.6243C77.8091 10.6243 77.7788 10.657 77.7477 10.6875C77.4961 10.1886 77.2756 9.6923 77.0222 9.19384C76.7102 8.75874 76.269 8.41358 76.0147 7.91643H75.9536V7.85393C76.3334 7.76138 76.7102 7.69757 77.2441 7.69757Z" fill="#00758F"/>
</g>
<defs>
<clipPath id="clip0_3286_1594">
<rect width="113" height="76" fill="white"/>
</clipPath>
</defs>
</svg>
