<svg width="190" height="99" viewBox="0 0 190 99" fill="none" xmlns="http://www.w3.org/2000/svg">
<g clip-path="url(#clip0_3286_1571)">
<path d="M95 98.7067C147.467 98.7067 190 76.6104 190 49.3533C190 22.0962 147.467 0 95 0C42.5329 0 0 22.0962 0 49.3533C0 76.6104 42.5329 98.7067 95 98.7067Z" fill="url(#paint0_radial_3286_1571)"/>
<path d="M95 95.0398C145.418 95.0398 186.289 74.5852 186.289 49.3532C186.289 24.1211 145.418 3.6665 95 3.6665C44.5824 3.6665 3.71094 24.1211 3.71094 49.3532C3.71094 74.5852 44.5824 95.0398 95 95.0398Z" fill="#6181B6"/>
<path d="M113.481 64.1667L118.008 41.1401C119.047 35.9334 118.157 32.0467 115.485 29.6267C112.887 27.2801 108.434 26.1067 101.903 26.1067H94.0356L96.2621 14.6667C96.3363 14.2267 96.2621 13.7867 95.9652 13.4201C95.6684 13.0534 95.2973 12.9067 94.852 12.9067H84.016C83.2738 12.9067 82.6801 13.4201 82.5316 14.0801L77.7074 38.5001C77.2621 35.7134 76.2231 33.3667 74.4418 31.4601C71.2504 27.8667 66.2777 26.0334 59.5238 26.0334H38.6684C37.9262 26.0334 37.3324 26.5467 37.184 27.2067L27.4613 76.7801C27.3871 77.2201 27.4613 77.6601 27.7582 78.0267C28.0551 78.3934 28.4262 78.5401 28.8715 78.5401H39.7817C40.5238 78.5401 41.1176 78.0267 41.266 77.3667L43.641 65.4134H51.7309C55.9613 65.4134 59.5981 64.9734 62.3442 64.0934C65.2387 63.1401 67.8363 61.6001 70.1371 59.4734C71.9926 57.7867 73.5512 55.8801 74.7387 53.8267L72.809 63.7267C72.7348 64.1667 72.809 64.6067 73.1059 64.9734C73.4027 65.3401 73.7738 65.4867 74.2192 65.4867H85.0551C85.7973 65.4867 86.391 64.9734 86.5395 64.3134L91.8832 37.1801H99.3051C102.496 37.1801 103.387 37.7667 103.684 38.0601C103.907 38.2801 104.352 39.1601 103.832 41.8734L99.5277 63.8001C99.4535 64.2401 99.5277 64.6801 99.8246 65.0467C100.121 65.4134 100.493 65.5601 100.938 65.5601H112.071C112.739 65.3401 113.332 64.8267 113.481 64.1667ZM63.309 45.1001C62.641 48.5467 61.3793 51.0401 59.5238 52.4334C57.6684 53.8267 54.6254 54.5601 50.6176 54.5601H45.7934L49.2817 36.8134H55.516C60.1176 36.8134 61.9731 37.7667 62.7152 38.5734C63.6801 39.7467 63.9027 42.0201 63.309 45.1001ZM159.793 31.4601C156.602 27.8667 151.629 26.0334 144.875 26.0334H123.871C123.129 26.0334 122.536 26.5467 122.387 27.2067L112.664 76.7067C112.59 77.1467 112.664 77.5867 112.961 77.9534C113.258 78.3201 113.629 78.4667 114.075 78.4667H124.985C125.727 78.4667 126.321 77.9534 126.469 77.2934L128.844 65.3401H136.934C141.164 65.3401 144.801 64.9001 147.547 64.0201C150.442 63.0667 153.039 61.5267 155.34 59.4001C157.27 57.6401 158.903 55.6601 160.09 53.5334C161.278 51.4067 162.168 49.0601 162.688 46.4934C163.95 40.1134 162.985 35.1267 159.793 31.4601ZM148.438 45.1001C147.77 48.5467 146.508 51.0401 144.653 52.4334C142.797 53.8267 139.754 54.5601 135.746 54.5601H130.922L134.411 36.8134H140.645C145.246 36.8134 147.102 37.7667 147.844 38.5734C148.883 39.7467 149.106 42.0201 148.438 45.1001Z" fill="white"/>
<path d="M55.5156 35.3469C59.6719 35.3469 62.418 36.0802 63.8281 37.6202C65.2383 39.1602 65.5352 41.7269 64.793 45.3935C64.0508 49.2069 62.5664 51.9935 60.4141 53.6069C58.2617 55.2202 54.9961 56.0269 50.6172 56.0269H44.0117L48.0938 35.3469H55.5156ZM28.9453 77.0002H39.8555L42.4531 63.8735H51.8047C55.9609 63.8735 59.3008 63.4335 61.9727 62.5535C64.6445 61.6735 67.0195 60.2802 69.2461 58.2269C71.1016 56.5402 72.5859 54.7069 73.6992 52.7269C74.8125 50.7469 75.6289 48.5469 76.0742 46.1269C77.2617 40.2602 76.3711 35.7135 73.4766 32.4135C70.582 29.1135 65.9805 27.5002 59.6719 27.5002H38.668L28.9453 77.0002ZM84.0898 14.3735H94.9258L92.3281 27.5002H101.977C108.062 27.5002 112.219 28.5269 114.52 30.6535C116.82 32.7802 117.488 36.1535 116.598 40.8469L112.07 63.8735H101.086L105.391 41.9469C105.91 39.4535 105.688 37.7669 104.871 36.8869C104.055 36.0069 102.199 35.4935 99.4531 35.4935H90.7695L85.2031 63.8735H74.3672L84.0898 14.3735ZM140.645 35.3469C144.801 35.3469 147.547 36.0802 148.957 37.6202C150.367 39.1602 150.664 41.7269 149.922 45.3935C149.18 49.2069 147.695 51.9935 145.543 53.6069C143.391 55.2202 140.125 56.0269 135.746 56.0269H129.141L133.223 35.3469H140.645ZM114.074 77.0002H124.984L127.582 63.8735H136.934C141.09 63.8735 144.43 63.4335 147.102 62.5535C149.773 61.6735 152.148 60.2802 154.375 58.2269C156.23 56.5402 157.715 54.7069 158.828 52.7269C159.941 50.7469 160.758 48.5469 161.203 46.1269C162.391 40.2602 161.5 35.7135 158.605 32.4135C155.711 29.1135 151.109 27.5002 144.801 27.5002H123.797L114.074 77.0002Z" fill="#000004"/>
</g>
<defs>
<radialGradient id="paint0_radial_3286_1571" cx="0" cy="0" r="1" gradientUnits="userSpaceOnUse" gradientTransform="translate(57.0382 17.3562) scale(124.758 123.27)">
<stop stop-color="white"/>
<stop offset="0.5" stop-color="#4C6B97"/>
<stop offset="1" stop-color="#231F20"/>
</radialGradient>
<clipPath id="clip0_3286_1571">
<rect width="190" height="99" fill="white"/>
</clipPath>
</defs>
</svg>
