<svg width="91" height="91" viewBox="0 0 91 91" fill="none" xmlns="http://www.w3.org/2000/svg">
<path d="M80.4189 18.5312C65.5254 -0.755123 37.8152 -4.3155 18.5282 10.5808C-0.755968 25.477 -4.31279 53.1873 10.5835 72.4714C25.4826 91.7549 53.1949 95.3096 72.4763 80.4105C91.7526 65.5142 95.3102 37.8125 80.4189 18.5312Z" fill="#F37036"/>
<path d="M64.7509 17.1791C63.232 17.3006 61.7918 17.905 60.641 18.9038C59.2943 20.0734 58.4349 21.7052 58.2322 23.4773C58.0295 25.2495 58.4983 27.0332 59.5462 28.4766C60.5931 29.9203 62.1429 30.9193 63.8901 31.2766C65.6373 31.6339 67.4549 31.3236 68.9846 30.4068H68.986L69.0969 30.5177C69.6007 30.2291 70.0695 29.8832 70.4939 29.4869C71.8033 28.1019 72.5236 26.2626 72.503 24.3567C72.4823 22.4509 71.7222 20.6276 70.383 19.2714V19.27L64.0954 25.5184L63.9845 25.4082L70.2721 19.1569C69.5442 18.4553 68.6757 17.9163 67.7238 17.5756C66.772 17.2348 65.7587 17.1002 64.7509 17.1805V17.1791ZM56.4728 27.4074C53.4584 27.4024 48.5366 30.8192 36.5189 42.8368L36.5786 42.898C36.5132 42.8752 36.4471 42.8731 36.4471 42.8731L31.9227 47.3577C31.8065 47.4682 31.7296 47.6137 31.7037 47.7719C31.6777 47.9301 31.7042 48.0925 31.7791 48.2343C31.8539 48.3761 31.973 48.4896 32.1183 48.5575C32.2636 48.6254 32.4271 48.6439 32.5839 48.6104L40.343 46.9553C40.3776 46.9233 40.4006 46.8808 40.4084 46.8344L40.5805 47.0122L37.9358 49.6355H37.8078L22.1061 65.461L27.1438 70.3125C27.2844 70.4398 27.4622 70.5189 27.651 70.5379C27.8398 70.557 28.0298 70.5151 28.1931 70.4184C28.3577 70.3226 28.4896 70.1793 28.5714 70.0073C28.6533 69.8353 28.6812 69.6425 28.6517 69.4544L27.9158 66.2551C27.8696 66.191 27.8447 66.1139 27.8447 66.0347C27.8447 65.9556 27.8696 65.8785 27.9158 65.8143C34.7935 62.5355 41.1893 58.3296 46.9249 53.3139L43.7008 50.0884L43.7619 50.0785L41.8495 48.1667L41.9718 48.043L42.1012 48.1753L42.0343 48.24L47.1083 53.4248V53.4227C56.8339 44.2132 63.7371 36.8102 61.942 31.828C61.8602 31.2322 61.5835 30.6802 61.155 30.2582V30.2611C61.0459 30.1805 60.9311 30.1078 60.8116 30.0435C60.7526 29.981 60.7007 29.917 60.6382 29.8558L60.5912 29.9028C60.4591 29.8229 60.3208 29.754 60.1775 29.6966L60.3829 29.489C59.1061 28.3515 58.0511 27.4102 56.4728 27.406V27.4074ZM21.9966 65.5556L18.3203 69.2325V69.2354C18.1884 69.3171 18.0859 69.4386 18.0275 69.5823C17.9691 69.7261 17.9579 69.8846 17.9954 70.0352C18.0317 70.1857 18.1145 70.3209 18.232 70.4216C18.3496 70.5223 18.4959 70.5834 18.6502 70.5961L27.6592 71.2182L21.9966 65.5556Z" fill="white"/>
<path d="M65.3709 16.572C63.3076 16.5697 61.3262 17.3792 59.8548 18.8257C58.808 19.8972 58.0913 21.2469 57.7901 22.7142C57.4888 24.1815 57.6157 25.7045 58.1556 27.1017C54.7851 25.6585 50.2251 28.1752 36.0412 42.3563C36.0313 42.3781 36.0225 42.4004 36.0149 42.4231C35.9857 42.4359 35.9575 42.4506 35.9303 42.4672L31.445 46.9916C31.23 47.2026 31.0888 47.4774 31.0423 47.775C30.9958 48.0726 31.0465 48.3773 31.1869 48.6438C31.3121 48.8548 31.4896 49.03 31.7021 49.1525C31.9147 49.275 32.1552 49.3408 32.4005 49.3434L32.623 49.1991L38.612 47.9215L35.7469 50.8129C35.7307 50.8511 35.7178 50.8905 35.7085 50.9309L21.6675 65.0068C21.6115 65.0539 21.5652 65.1113 21.531 65.176L17.9151 68.7947C17.7351 68.985 17.6122 69.222 17.5601 69.4788C17.5081 69.7355 17.5291 70.0017 17.6208 70.2471C17.7154 70.4907 17.8754 70.7036 18.0831 70.8622C18.2908 71.0209 18.5382 71.1192 18.7981 71.1464L27.7687 71.7721C27.922 71.7188 28.0525 71.6147 28.1384 71.477C28.2151 71.3697 28.2564 71.241 28.2564 71.1091C28.2564 70.9772 28.2151 70.8485 28.1384 70.7412L28.1199 70.7234C28.314 70.6225 28.4847 70.4821 28.6211 70.3111C28.7651 70.1241 28.8656 69.9074 28.9156 69.6767C28.9655 69.446 28.9635 69.2072 28.9098 68.9774L28.2102 66.0007C34.9219 62.7933 41.2103 58.767 46.9321 54.0135C46.9873 54.0458 47.0466 54.0704 47.1084 54.0868C47.2889 54.0733 47.4581 53.9958 47.5861 53.8678C57.2193 44.7465 62.8819 38.4959 62.8819 33.5336C62.9033 32.8452 62.7995 32.1587 62.5755 31.5074C63.4438 31.8667 64.3698 32.0666 65.3091 32.0975L65.2984 32.1003C66.5922 32.0613 67.857 31.7075 68.9832 31.0695L68.986 31.0702C69.1319 31.1135 69.2888 31.0995 69.4247 31.0311C69.9682 30.711 70.4637 30.3156 70.8963 29.8566C71.6296 29.1373 72.2121 28.2791 72.6098 27.3321C73.0075 26.3851 73.2124 25.3683 73.2126 24.3412C73.2125 23.3141 73.0077 22.2973 72.6101 21.3503C72.2125 20.4033 71.6302 19.545 70.897 18.8257C70.8707 18.8021 70.8427 18.7805 70.8132 18.761C69.3495 17.3561 67.399 16.572 65.3702 16.5727L65.3709 16.572ZM65.3091 17.8318C66.7458 17.8404 68.1403 18.3182 69.2804 19.1925L63.5445 24.9632C63.5251 24.9853 63.507 25.0086 63.4905 25.0329C63.3871 25.1375 63.3265 25.277 63.3206 25.4239C63.3205 25.5127 63.3405 25.6004 63.379 25.6804C63.4175 25.7604 63.4736 25.8307 63.5431 25.886H63.5445L67.8812 30.2227C66.6942 30.7408 65.3784 30.8881 64.1063 30.6454C62.8341 30.4027 61.6649 29.7813 60.752 28.8627C58.9135 27.0143 58.3803 24.2388 59.3635 21.8308C60.3467 19.4208 62.6907 17.846 65.3091 17.8318ZM70.371 20.2717C71.3088 21.4064 71.8201 22.8335 71.8163 24.3056C71.8136 26.0302 71.1263 27.6832 69.9053 28.9011C69.6605 29.1314 69.3996 29.344 69.1247 29.5374L65.6247 26.0915L64.9401 25.4068L65.1285 25.2184L70.3702 20.2703L70.371 20.2717ZM70.1107 23.2527C69.9821 23.2123 69.8431 23.2201 69.7197 23.2747C69.5977 23.3378 69.5057 23.4468 69.4638 23.5776C69.4432 23.6429 69.4357 23.7117 69.4418 23.7799C69.4479 23.8481 69.4675 23.9144 69.4993 23.975C69.6254 24.2407 69.675 24.5362 69.6428 24.8285C69.6105 25.1207 69.4976 25.3983 69.3166 25.6301C69.2703 25.6748 69.234 25.7289 69.2101 25.7887C69.1862 25.8485 69.1752 25.9127 69.178 25.977C69.1808 26.1078 69.2278 26.233 69.3166 26.3268C69.4114 26.363 69.5162 26.363 69.611 26.3268C69.6964 26.3481 69.7861 26.3457 69.8703 26.3198C69.9545 26.2938 70.03 26.2454 70.0887 26.1796C70.3914 25.8088 70.5831 25.3599 70.6416 24.8848C70.7001 24.4096 70.623 23.9276 70.4193 23.4944V23.4973C70.3498 23.3808 70.24 23.2937 70.1107 23.2527ZM56.406 28.0323C57.2639 28.0616 58.0893 28.3673 58.7592 28.9039C58.0379 29.008 57.3694 29.3421 56.8532 29.8566L40.6388 45.9984L37.4567 42.8163C45.8656 34.4471 51.0071 30.0756 54.2035 28.643C54.8621 28.2283 55.6279 28.0165 56.406 28.0323ZM59.2249 30.1367C59.7693 30.1371 60.2914 30.3528 60.6773 30.7367C60.8821 30.9297 61.0437 31.1638 61.1514 31.4237C61.2592 31.6836 61.3105 31.9634 61.3022 32.2446C61.2929 32.5249 61.2259 32.8002 61.1054 33.0534C60.9849 33.3066 60.8135 33.5323 60.602 33.7163L43.3617 48.7213L41.5012 46.8608L57.7724 30.7367C58.1585 30.3531 58.6806 30.1369 59.2249 30.1367ZM61.3534 34.8986C60.1519 39.6633 53.7841 46.1193 47.1439 52.3926L44.4587 49.7102L61.3534 34.8986ZM36.519 43.7561L36.7137 43.9481L39.2113 46.4456L32.3649 47.9102L36.519 43.7561ZM40.6374 47.908L40.6403 47.9109L41.4706 48.7604L41.4834 48.8201L41.5389 48.8287L41.7152 49.0093L42.2982 49.6064L38.4698 50.0757L40.6374 47.908ZM43.3866 50.8058L45.9303 53.3481C40.3056 58.0253 34.1332 62.0016 27.5491 65.1895C27.3353 65.2913 27.1634 65.464 27.0627 65.6783C26.962 65.8926 26.9386 66.1351 26.9967 66.3647L27.7325 69.5639C27.7596 69.6014 27.7742 69.6466 27.7742 69.6929C27.7742 69.7393 27.7596 69.7844 27.7325 69.822C27.692 69.8582 27.6396 69.8783 27.5853 69.8783C27.531 69.8783 27.4786 69.8582 27.4381 69.822L23.1 65.4483L36.4713 51.8807L43.3866 50.8058ZM22.1061 66.4038L22.7239 66.9825L25.9175 70.176L18.7967 69.7153L22.1061 66.4038Z" fill="#F37036"/>
</svg>
